FFmpeg version SVN-r25716, Copyright (c) 2000-2010 the FFmpeg developers  built on Nov 10 2010 12:23:18 with gcc 4.1.2 20080704 (Red Hat 4.1.2-48)  configuration: --enable-libmp3lame --enable-shared --disable-mmx --arch=x86_64  libavutil     50.33. 0 / 50.33. 0  libavcore      0.12. 1 /  0.12. 1  libavcodec    52.94. 4 / 52.94. 4  libavformat   52.84. 0 / 52.84. 0  libavdevice   52. 2. 2 / 52. 2. 2  libavfilter    1.59. 0 /  1.59. 0  libswscale     0.12. 0 /  0.12. 0Seems stream 0 codec frame rate differs from container frame rate: 600.00 (600/1) -> 30.00 (30/1)Input #0, mov,mp4,m4a,3gp,3g2,mj2, from '/RAID10/data/converted_video_files/35202.mov':  Duration: 00:00:02.80, bitrate: 1256 kb/s    Stream #0.0(eng): Video: svq1, yuv410p, 320x240, 1252 kb/s, 30 fps, 30 tbr, 600 tbn, 600 tbc[buffer @ 0x16b4e870] w:320 h:240 pixfmt:yuv410p[ffsink @ 0x16b50c80] auto-inserting filter 'auto-inserted scaler 0' between the filter 'src' and the filter 'out'[scale @ 0x16b50fa0] w:320 h:240 fmt:yuv410p -> w:320 h:240 fmt:yuv420p flags:0x4Output #0, flv, to '/RAID10/data/converted_video_files/35202.flv':  Metadata:    encoder         : Lavf52.84.0    Stream #0.0(eng): Video: flv, yuv420p, 320x240, q=2-31, 600 kb/s, 1k tbn, 24 tbcStream mapping:  Stream #0.0 -> #0.0Press [q] to stop encodingframe=   50 fps=  0 q=3.8 size=     304kB time=2.08 bitrate=1195.8kbits/s dup=0 drop=12    frame=   68 fps=  0 q=3.5 Lsize=     304kB time=2.83 bitrate= 879.2kbits/s dup=0 drop=16    video:303kB audio:0kB global headers:0kB muxing overhead 0.418626%